<?xml version="1.0" standalone="no"?>
<!DOCTYPE svg PUBLIC "-//W3C//DTD SVG 20010904//EN"
 "http://www.w3.org/TR/2001/REC-SVG-20010904/DTD/svg10.dtd">
<svg version="1.0" xmlns="http://www.w3.org/2000/svg"
 width="851.000000pt" height="477.000000pt" viewBox="0 0 851.000000 477.000000"
 preserveAspectRatio="xMidYMid meet">

<g transform="translate(0.000000,477.000000) scale(0.100000,-0.100000)"
fill="#000000" stroke="none">
<path d="M3750 3470 l0 -430 200 0 c110 0 200 -1 200 -2 0 -2 -14 -46 -30 -98
-16 -52 -30 -103 -30 -112 0 -17 16 -18 205 -18 157 0 205 3 205 13 0 6 -14
55 -30 107 -16 52 -30 98 -30 103 0 4 90 7 200 7 l200 0 0 430 0 430 -545 0
-545 0 0 -430z m1058 3 l-3 -398 -198 -3 c-146 -2 -199 -6 -203 -15 -2 -7 9
-55 25 -106 17 -52 28 -98 25 -103 -6 -10 -311 -11 -317 0 -3 4 8 50 24 102
16 52 27 101 24 108 -3 9 -54 12 -205 12 l-200 0 0 400 0 400 515 0 515 0 -2
-397z"/>
<path d="M3845 3778 c-3 -13 -4 -160 -3 -328 l3 -305 448 -3 447 -2 0 330 0
330 -445 0 -445 0 -5 -22z m855 -313 l0 -295 -407 2 -408 3 -3 280 c-1 154 0
285 3 292 3 10 92 13 410 13 l405 0 0 -295z"/>
<path d="M4045 3648 c-4 -10 19 -41 69 -93 42 -42 76 -82 76 -88 0 -7 -37 -49
-82 -94 -68 -68 -79 -83 -64 -89 13 -5 39 15 107 82 49 49 89 93 89 99 0 6
-43 53 -95 105 -70 70 -96 90 -100 78z"/>
<path d="M4307 3304 c-4 -4 -7 -13 -7 -21 0 -10 31 -13 144 -13 139 0 170 6
143 28 -14 11 -269 16 -280 6z"/>
<path d="M1980 2365 l0 -615 2301 0 2301 0 -3 604 c-2 332 -6 607 -9 609 -3 3
-312 7 -688 9 l-682 3 0 -41 0 -41 212 -6 c116 -4 406 -7 645 -7 l433 0 0
-520 0 -520 -2210 0 -2210 0 0 527 0 526 645 -7 645 -7 0 44 0 44 -437 6
c-240 4 -550 7 -690 7 l-253 0 0 -615z"/>
<path d="M3925 2621 c-50 -22 -91 -69 -105 -119 -5 -20 -10 -77 -10 -127 0
-79 4 -96 28 -140 19 -35 40 -57 72 -75 41 -23 55 -25 165 -25 103 0 126 3
160 21 76 41 105 95 113 209 6 103 -13 166 -66 218 -51 50 -77 57 -205 57 -87
0 -121 -5 -152 -19z m290 -102 l35 -31 0 -99 c0 -95 -1 -100 -29 -131 -29 -33
-31 -33 -128 -36 -162 -5 -193 23 -193 172 0 87 0 88 34 122 l34 34 106 0
c104 0 106 -1 141 -31z"/>
<path d="M2482 2588 l3 -43 98 -3 97 -3 0 -200 0 -200 43 3 42 3 3 198 2 197
89 0 c98 0 115 9 109 57 l-3 28 -243 3 -243 2 3 -42z"/>
<path d="M3040 2610 c-7 -12 -9 -100 -8 -242 l3 -223 42 -3 43 -3 2 198 3 198
158 3 157 3 0 -49 c0 -27 -7 -57 -16 -70 -14 -20 -23 -22 -124 -22 -59 0 -115
-3 -124 -6 -11 -4 -16 -19 -16 -44 0 -35 2 -38 35 -43 25 -4 61 -29 127 -86
l93 -81 63 0 c35 0 62 4 60 9 -1 4 -36 36 -76 71 -40 34 -72 66 -70 71 2 5 23
19 48 31 69 35 90 75 90 170 0 75 -2 81 -29 109 l-29 29 -211 0 c-199 0 -211
-1 -221 -20z"/>
<path d="M3630 2385 l0 -246 43 3 42 3 0 240 0 240 -42 3 -43 3 0 -246z"/>
<path d="M4463 2597 c-31 -29 -37 -41 -41 -89 -5 -66 15 -116 57 -141 23 -14
55 -17 158 -17 152 0 177 -9 181 -61 2 -21 -3 -40 -11 -47 -9 -8 -78 -12 -198
-14 l-184 -3 -3 -43 -3 -43 206 3 206 3 40 42 c35 38 39 47 39 95 0 36 -7 64
-20 86 -32 53 -76 66 -235 72 l-140 5 0 45 0 45 175 5 175 5 3 43 3 42 -186 0
-185 0 -37 -33z"/>
<path d="M4970 2530 c0 -153 37 -209 144 -220 l51 -5 3 -82 3 -83 44 0 45 0 0
79 c0 86 4 91 61 91 61 0 119 48 139 115 6 22 10 76 8 120 l-3 80 -42 3 -43 3
0 -94 c0 -85 -2 -96 -23 -115 -21 -20 -34 -22 -145 -22 -151 0 -152 1 -152
137 l0 93 -45 0 -45 0 0 -100z"/>
<path d="M5594 2611 c-32 -20 -64 -82 -64 -127 0 -42 27 -93 62 -114 29 -17
50 -20 161 -20 123 0 162 -7 179 -34 13 -20 8 -53 -10 -69 -16 -15 -45 -17
-200 -17 l-182 0 -6 -24 c-3 -14 -3 -34 1 -45 6 -20 13 -21 193 -21 158 0 192
3 221 18 71 35 96 109 66 187 -27 72 -67 88 -239 95 -155 6 -170 12 -150 67
l9 28 170 5 170 5 3 43 3 42 -178 0 c-157 0 -182 -2 -209 -19z"/>
</g>
</svg>
